<?xml version="1.0" encoding="utf-8"?>
<!-- Generator: Adobe Illustrator 26.0.3, SVG Export Plug-In . SVG Version: 6.00 Build 0)  -->
<svg version="1.1" id="레이어_1" xmlns="http://www.w3.org/2000/svg" xmlns:xlink="http://www.w3.org/1999/xlink" x="0px"
	 y="0px" viewBox="0 0 44 32" style="enable-background:new 0 0 44 32;" xml:space="preserve">
<style type="text/css">
	.st0{display:none;fill:#1B1C1D;}
	.st1{fill:#1B1C1D;}
</style>
<path class="st0" d="M22,13c-1.7,0-3,1.3-3,3s1.3,3,3,3s3-1.3,3-3S23.7,13,22,13z M2,1v30h40V1H2z M14.5,21H12V11h2.5V21z M22,21.2
	c-2.9,0-5.2-2.4-5.2-5.2s2.4-5.2,5.2-5.2s5.2,2.4,5.2,5.2S24.9,21.2,22,21.2z M32,21h-2.5V11H32V21z"/>
<text transform="matrix(1 0 0 1 -17.828 -23.7358)" style="display:none;enable-background:new    ; font-family:'Plecnik-Bold'; font-size:12px;">404</text>
<g>
	<polygon class="st1" points="33,17.4 33,15.3 31.1,17.4 	"/>
	<polygon class="st1" points="12.9,17.4 12.9,15.3 10.9,17.4 	"/>
	<path class="st1" d="M22.1,13c-0.9,0-1.6,0.3-2.2,0.9C19.3,14.4,19,15.1,19,16c0,0.9,0.3,1.6,0.9,2.2c0.6,0.6,1.3,0.9,2.2,0.9
		c0.9,0,1.6-0.3,2.2-0.9c0.6-0.6,0.9-1.3,0.9-2.2c0-0.9-0.3-1.6-0.9-2.2C23.7,13.3,23,13,22.1,13z"/>
	<path class="st1" d="M2,1v30h40V1H2z M16.5,19.5h-1.5v1.4h-2.2v-1.4H7.3v-1.1l6.6-7.3h1.1v6.4h1.5V19.5z M25.9,19.7
		c-1,1-2.3,1.5-3.8,1.5c-1.5,0-2.8-0.5-3.8-1.5c-1-1-1.5-2.2-1.5-3.7c0-1.5,0.5-2.7,1.5-3.7c1-1,2.3-1.5,3.8-1.5
		c1.5,0,2.8,0.5,3.8,1.5c1,1,1.5,2.2,1.5,3.7C27.4,17.5,26.9,18.7,25.9,19.7z M36.7,19.5h-1.5v1.4H33v-1.4h-5.6v-1.1l6.6-7.3h1.1
		v6.4h1.5V19.5z"/>
</g>
<g>
	<polygon class="st1" points="-22,-22.3 -22,-24.4 -24,-22.3 	"/>
	<polygon class="st1" points="-42.2,-22.3 -42.2,-24.4 -44.2,-22.3 	"/>
	<path class="st1" d="M-33-26.8c-0.9,0-1.6,0.3-2.2,0.9c-0.6,0.6-0.9,1.3-0.9,2.2c0,0.9,0.3,1.6,0.9,2.2c0.6,0.6,1.3,0.9,2.2,0.9
		c0.9,0,1.6-0.3,2.2-0.9c0.6-0.6,0.9-1.3,0.9-2.2c0-0.9-0.3-1.6-0.9-2.2C-31.4-26.5-32.1-26.8-33-26.8z"/>
	<path class="st1" d="M-38.5-20.2H-40v1.4h-2.2v-1.4h-5.6v-1.1l6.6-7.3h1.1v6.4h1.5V-20.2z M-29.2-20c-1,1-2.3,1.5-3.8,1.5
		c-1.5,0-2.8-0.5-3.8-1.5c-1-1-1.5-2.2-1.5-3.7c0-1.5,0.5-2.7,1.5-3.7c1-1,2.3-1.5,3.8-1.5c1.5,0,2.8,0.5,3.8,1.5
		c1,1,1.5,2.2,1.5,3.7C-27.7-22.2-28.2-21-29.2-20z M-18.4-20.2h-1.5v1.4H-22v-1.4h-5.6v-1.1l6.6-7.3h1.1v6.4h1.5V-20.2z"/>
</g>
</svg>
