<?xml version="1.0" encoding="utf-8"?>
<!-- Generator: Adobe Illustrator 26.0.3, SVG Export Plug-In . SVG Version: 6.00 Build 0)  -->
<svg version="1.1" id="레이어_1" xmlns="http://www.w3.org/2000/svg" xmlns:xlink="http://www.w3.org/1999/xlink" x="0px"
	 y="0px" viewBox="0 0 16 16" style="enable-background:new 0 0 16 16;" xml:space="preserve">
<style type="text/css">
	.st0{fill:#FFFFFF;}
</style>
<g>
	<path class="st0" d="M8.1,6.3c-1.4,0-2.5,1.1-2.5,2.5s1.1,2.5,2.5,2.5s2.5-1.1,2.5-2.5S9.5,6.3,8.1,6.3z"/>
	<path class="st0" d="M13.9,2.8h-3.4V1.7c0-0.3-0.3-0.6-0.6-0.6H6.1c-0.3,0-0.6,0.3-0.6,0.6v1.1H2c-0.9,0-1.6,0.7-1.6,1.6v8.9
		c0,0.9,0.7,1.6,1.6,1.6h11.9c0.9,0,1.6-0.7,1.6-1.6V4.4C15.5,3.5,14.8,2.8,13.9,2.8z M8.1,12.3c-1.9,0-3.5-1.6-3.5-3.5
		s1.6-3.5,3.5-3.5s3.5,1.6,3.5,3.5S10,12.3,8.1,12.3z"/>
</g>
</svg>
