<?xml version="1.0" encoding="utf-8"?>
<!-- Generator: Adobe Illustrator 26.0.3, SVG Export Plug-In . SVG Version: 6.00 Build 0)  -->
<svg version="1.1" id="레이어_1" xmlns="http://www.w3.org/2000/svg" xmlns:xlink="http://www.w3.org/1999/xlink" x="0px"
	 y="0px" viewBox="0 0 16 16" style="enable-background:new 0 0 16 16;" xml:space="preserve">
<style type="text/css">
	.st0{fill:#3A3A3A;stroke:#3A3A3A;stroke-width:0.1;stroke-miterlimit:10;}
</style>
<path class="st0" d="M10.7,15.4H5.3c-1.3,0-2.4-1.2-2.4-2.6V6.4c0-0.3,0.3-0.6,0.6-0.6s0.6,0.3,0.6,0.6v6.5c0,0.8,0.5,1.4,1.2,1.4
	h5.4c0.7,0,1.2-0.6,1.2-1.4V6.4c0-0.3,0.3-0.6,0.6-0.6s0.6,0.3,0.6,0.6v6.5C13.1,14.3,12,15.4,10.7,15.4z"/>
<path class="st0" d="M14,4.1H2c-0.3,0-0.6-0.3-0.6-0.6S1.7,2.9,2,2.9h12c0.3,0,0.6,0.3,0.6,0.6S14.3,4.1,14,4.1z"/>
<path class="st0" d="M10.5,3.9c-0.3,0-0.6-0.3-0.6-0.6V2.4c0-0.4-0.3-0.6-0.6-0.6H6.7c-0.4,0-0.6,0.3-0.6,0.6v0.9
	c0,0.3-0.3,0.6-0.6,0.6S4.9,3.6,4.9,3.3V2.4c0-1,0.8-1.8,1.8-1.8h2.5c1,0,1.8,0.8,1.8,1.8v0.9C11.1,3.6,10.8,3.9,10.5,3.9z"/>
</svg>
